<?xml version="1.0" encoding="UTF-8" standalone="no"?>
<svg
   version="1.1"
   x="0px"
   y="0px"
   style="enable-background:new 0 0 1629.94 440.17;"
   xml:space="preserve"
   viewBox="94.62 71.5 1445.02 285.62"
   id="svg348"
   sodipodi:docname="PRCEU-cropped.svg"
   inkscape:version="1.2.2 (b0a8486541, 2022-12-01)"
   xmlns:inkscape="http://www.inkscape.org/namespaces/inkscape"
   xmlns:sodipodi="http://sodipodi.sourceforge.net/DTD/sodipodi-0.dtd"
   xmlns="http://www.w3.org/2000/svg"
   xmlns:svg="http://www.w3.org/2000/svg"><defs
   id="defs352" /><sodipodi:namedview
   id="namedview350"
   pagecolor="#ffffff"
   bordercolor="#000000"
   borderopacity="0.25"
   inkscape:showpageshadow="2"
   inkscape:pageopacity="0.0"
   inkscape:pagecheckerboard="0"
   inkscape:deskcolor="#d1d1d1"
   showgrid="false"
   inkscape:zoom="0.90240964"
   inkscape:cx="722.51001"
   inkscape:cy="142.9506"
   inkscape:window-width="1920"
   inkscape:window-height="1051"
   inkscape:window-x="0"
   inkscape:window-y="0"
   inkscape:window-maximized="1"
   inkscape:current-layer="svg348" />
<style
   type="text/css"
   id="style2">
	.Verde_x0020_em_x0020_arco{fill:url(#SVGID_1_);stroke:#FFFFFF;stroke-width:0.25;stroke-miterlimit:1;}
	.st0{display:none;}
	.st1{display:inline;fill:none;stroke:#000000;stroke-width:0.5;}
</style>
<linearGradient
   id="SVGID_1_"
   gradientUnits="userSpaceOnUse"
   x1="-609.2886"
   y1="621.0107"
   x2="-608.5815"
   y2="620.3036">
	<stop
   offset="0"
   style="stop-color:#259E2E"
   id="stop4" />
	<stop
   offset="0.9831"
   style="stop-color:#1C381D"
   id="stop6" />
</linearGradient>
<g
   id="Camada_1"
   class="st0">
	<line
   class="st1"
   x1="0"
   y1="440.17"
   x2="1544.89"
   y2="440.17"
   id="line9" />
	<line
   class="st1"
   x1="0"
   y1="355.12"
   x2="1629.94"
   y2="355.12"
   id="line11" />
	<line
   class="st1"
   x1="0"
   y1="340.95"
   x2="1629.94"
   y2="340.95"
   id="line13" />
	<line
   class="st1"
   x1="0"
   y1="369.3"
   x2="1629.94"
   y2="369.3"
   id="line15" />
	<line
   class="st1"
   x1="0"
   y1="355.12"
   x2="1629.94"
   y2="355.12"
   id="line17" />
	<line
   class="st1"
   x1="0"
   y1="383.47"
   x2="1629.94"
   y2="383.47"
   id="line19" />
	<line
   class="st1"
   x1="0"
   y1="397.65"
   x2="1629.94"
   y2="397.65"
   id="line21" />
	<line
   class="st1"
   x1="0"
   y1="411.82"
   x2="1629.94"
   y2="411.82"
   id="line23" />
	<line
   class="st1"
   x1="0"
   y1="425.99"
   x2="1629.94"
   y2="425.99"
   id="line25" />
	<line
   class="st1"
   x1="85.04"
   y1="440.17"
   x2="1629.94"
   y2="440.17"
   id="line27" />
	<line
   class="st1"
   x1="0"
   y1="326.78"
   x2="1629.94"
   y2="326.78"
   id="line29" />
	<line
   class="st1"
   x1="0"
   y1="312.6"
   x2="1629.94"
   y2="312.6"
   id="line31" />
	<line
   class="st1"
   x1="0"
   y1="298.43"
   x2="1629.94"
   y2="298.43"
   id="line33" />
	<line
   class="st1"
   x1="0"
   y1="284.26"
   x2="1629.94"
   y2="284.26"
   id="line35" />
	<line
   class="st1"
   x1="0"
   y1="270.08"
   x2="1629.94"
   y2="270.08"
   id="line37" />
	<line
   class="st1"
   x1="0"
   y1="255.91"
   x2="1629.94"
   y2="255.91"
   id="line39" />
	<line
   class="st1"
   x1="0"
   y1="241.74"
   x2="1629.94"
   y2="241.74"
   id="line41" />
	<line
   class="st1"
   x1="0"
   y1="227.56"
   x2="1629.94"
   y2="227.56"
   id="line43" />
	<line
   class="st1"
   x1="0"
   y1="213.39"
   x2="1629.94"
   y2="213.39"
   id="line45" />
	<line
   class="st1"
   x1="0"
   y1="199.22"
   x2="1629.94"
   y2="199.22"
   id="line47" />
	<line
   class="st1"
   x1="0"
   y1="185.04"
   x2="1629.94"
   y2="185.04"
   id="line49" />
	<line
   class="st1"
   x1="0"
   y1="170.87"
   x2="1629.94"
   y2="170.87"
   id="line51" />
	<line
   class="st1"
   x1="0"
   y1="156.7"
   x2="1629.94"
   y2="156.7"
   id="line53" />
	<line
   class="st1"
   x1="0"
   y1="142.52"
   x2="1629.94"
   y2="142.52"
   id="line55" />
	<line
   class="st1"
   x1="0"
   y1="128.35"
   x2="1629.94"
   y2="128.35"
   id="line57" />
	<line
   class="st1"
   x1="0"
   y1="114.18"
   x2="1629.94"
   y2="114.18"
   id="line59" />
	<line
   class="st1"
   x1="0"
   y1="100"
   x2="1629.94"
   y2="100"
   id="line61" />
	<line
   class="st1"
   x1="0"
   y1="85.83"
   x2="1629.94"
   y2="85.83"
   id="line63" />
	<line
   class="st1"
   x1="0"
   y1="71.66"
   x2="1629.94"
   y2="71.66"
   id="line65" />
	<line
   class="st1"
   x1="0"
   y1="57.49"
   x2="1629.94"
   y2="57.49"
   id="line67" />
	<line
   class="st1"
   x1="0"
   y1="43.31"
   x2="1629.94"
   y2="43.31"
   id="line69" />
	<line
   class="st1"
   x1="0"
   y1="29.14"
   x2="1629.94"
   y2="29.14"
   id="line71" />
	<line
   class="st1"
   x1="0"
   y1="14.97"
   x2="1629.94"
   y2="14.97"
   id="line73" />
	<line
   class="st1"
   x1="0"
   y1="0.79"
   x2="1629.94"
   y2="0.79"
   id="line75" />
	<line
   class="st1"
   x1="325.99"
   y1="0.79"
   x2="325.99"
   y2="440.17"
   id="line77" />
	<line
   class="st1"
   x1="340.16"
   y1="0.79"
   x2="340.16"
   y2="440.17"
   id="line79" />
	<line
   class="st1"
   x1="354.33"
   y1="0.79"
   x2="354.33"
   y2="440.17"
   id="line81" />
	<line
   class="st1"
   x1="368.51"
   y1="0.79"
   x2="368.51"
   y2="440.17"
   id="line83" />
	<line
   class="st1"
   x1="382.68"
   y1="0.79"
   x2="382.68"
   y2="440.17"
   id="line85" />
	<line
   class="st1"
   x1="396.85"
   y1="0.79"
   x2="396.85"
   y2="440.17"
   id="line87" />
	<line
   class="st1"
   x1="411.03"
   y1="0.79"
   x2="411.03"
   y2="440.17"
   id="line89" />
	<line
   class="st1"
   x1="425.2"
   y1="0.79"
   x2="425.2"
   y2="440.17"
   id="line91" />
	<line
   class="st1"
   x1="439.37"
   y1="0.79"
   x2="439.37"
   y2="440.17"
   id="line93" />
	<line
   class="st1"
   x1="453.55"
   y1="0.79"
   x2="453.55"
   y2="440.17"
   id="line95" />
	<line
   class="st1"
   x1="467.72"
   y1="0.79"
   x2="467.72"
   y2="440.17"
   id="line97" />
	<line
   class="st1"
   x1="481.89"
   y1="0.79"
   x2="481.89"
   y2="440.17"
   id="line99" />
	<line
   class="st1"
   x1="496.07"
   y1="0.79"
   x2="496.07"
   y2="440.17"
   id="line101" />
	<line
   class="st1"
   x1="510.24"
   y1="0.79"
   x2="510.24"
   y2="440.17"
   id="line103" />
	<line
   class="st1"
   x1="524.41"
   y1="0.79"
   x2="524.41"
   y2="440.17"
   id="line105" />
	<line
   class="st1"
   x1="538.59"
   y1="0.79"
   x2="538.59"
   y2="440.17"
   id="line107" />
	<line
   class="st1"
   x1="552.76"
   y1="0.79"
   x2="552.76"
   y2="440.17"
   id="line109" />
	<line
   class="st1"
   x1="566.93"
   y1="0.79"
   x2="566.93"
   y2="440.17"
   id="line111" />
	<line
   class="st1"
   x1="581.11"
   y1="0.79"
   x2="581.11"
   y2="440.17"
   id="line113" />
	<line
   class="st1"
   x1="595.28"
   y1="0.79"
   x2="595.28"
   y2="440.17"
   id="line115" />
	<line
   class="st1"
   x1="609.45"
   y1="0.79"
   x2="609.45"
   y2="440.17"
   id="line117" />
	<line
   class="st1"
   x1="623.63"
   y1="0.79"
   x2="623.63"
   y2="440.17"
   id="line119" />
	<line
   class="st1"
   x1="637.8"
   y1="0.79"
   x2="637.8"
   y2="440.17"
   id="line121" />
	<line
   class="st1"
   x1="651.97"
   y1="0.79"
   x2="651.97"
   y2="440.17"
   id="line123" />
	<line
   class="st1"
   x1="666.15"
   y1="0.79"
   x2="666.15"
   y2="440.17"
   id="line125" />
	<line
   class="st1"
   x1="680.32"
   y1="0.79"
   x2="680.32"
   y2="440.17"
   id="line127" />
	<line
   class="st1"
   x1="694.49"
   y1="0.79"
   x2="694.49"
   y2="440.17"
   id="line129" />
	<line
   class="st1"
   x1="708.67"
   y1="0.79"
   x2="708.67"
   y2="440.17"
   id="line131" />
	<line
   class="st1"
   x1="722.84"
   y1="0.79"
   x2="722.84"
   y2="440.17"
   id="line133" />
	<line
   class="st1"
   x1="737.01"
   y1="0.79"
   x2="737.01"
   y2="440.17"
   id="line135" />
	<line
   class="st1"
   x1="751.19"
   y1="0.79"
   x2="751.19"
   y2="440.17"
   id="line137" />
	<line
   class="st1"
   x1="765.36"
   y1="0.79"
   x2="765.36"
   y2="440.17"
   id="line139" />
	<line
   class="st1"
   x1="779.53"
   y1="0.79"
   x2="779.53"
   y2="440.17"
   id="line141" />
	<line
   class="st1"
   x1="793.71"
   y1="0.79"
   x2="793.71"
   y2="440.17"
   id="line143" />
	<line
   class="st1"
   x1="807.88"
   y1="0.79"
   x2="807.88"
   y2="440.17"
   id="line145" />
	<line
   class="st1"
   x1="822.05"
   y1="0.79"
   x2="822.05"
   y2="440.17"
   id="line147" />
	<line
   class="st1"
   x1="836.23"
   y1="0.79"
   x2="836.23"
   y2="440.17"
   id="line149" />
	<line
   class="st1"
   x1="850.4"
   y1="0.79"
   x2="850.4"
   y2="440.17"
   id="line151" />
	<line
   class="st1"
   x1="864.57"
   y1="0.79"
   x2="864.57"
   y2="440.17"
   id="line153" />
	<line
   class="st1"
   x1="878.75"
   y1="0.79"
   x2="878.75"
   y2="440.17"
   id="line155" />
	<line
   class="st1"
   x1="892.92"
   y1="0.79"
   x2="892.92"
   y2="440.17"
   id="line157" />
	<line
   class="st1"
   x1="907.09"
   y1="0.79"
   x2="907.09"
   y2="440.17"
   id="line159" />
	<line
   class="st1"
   x1="921.27"
   y1="0.79"
   x2="921.27"
   y2="440.17"
   id="line161" />
	<line
   class="st1"
   x1="935.44"
   y1="0.79"
   x2="935.44"
   y2="440.17"
   id="line163" />
	<line
   class="st1"
   x1="949.61"
   y1="0.79"
   x2="949.61"
   y2="440.17"
   id="line165" />
	<line
   class="st1"
   x1="963.79"
   y1="0.79"
   x2="963.79"
   y2="440.17"
   id="line167" />
	<line
   class="st1"
   x1="977.96"
   y1="0.79"
   x2="977.96"
   y2="440.17"
   id="line169" />
	<line
   class="st1"
   x1="992.13"
   y1="0.79"
   x2="992.13"
   y2="440.17"
   id="line171" />
	<line
   class="st1"
   x1="1006.31"
   y1="0.79"
   x2="1006.31"
   y2="440.17"
   id="line173" />
	<line
   class="st1"
   x1="1020.48"
   y1="0.79"
   x2="1020.48"
   y2="440.17"
   id="line175" />
	<line
   class="st1"
   x1="1034.65"
   y1="0.79"
   x2="1034.65"
   y2="440.17"
   id="line177" />
	<line
   class="st1"
   x1="1048.83"
   y1="0.79"
   x2="1048.83"
   y2="440.17"
   id="line179" />
	<line
   class="st1"
   x1="1063"
   y1="0.79"
   x2="1063"
   y2="440.17"
   id="line181" />
	<line
   class="st1"
   x1="1077.17"
   y1="0.79"
   x2="1077.17"
   y2="440.17"
   id="line183" />
	<line
   class="st1"
   x1="1091.35"
   y1="0.79"
   x2="1091.35"
   y2="440.17"
   id="line185" />
	<line
   class="st1"
   x1="1105.52"
   y1="0.79"
   x2="1105.52"
   y2="440.17"
   id="line187" />
	<line
   class="st1"
   x1="1119.69"
   y1="0.79"
   x2="1119.69"
   y2="440.17"
   id="line189" />
	<line
   class="st1"
   x1="1133.87"
   y1="0.79"
   x2="1133.87"
   y2="440.17"
   id="line191" />
	<line
   class="st1"
   x1="1148.04"
   y1="0.79"
   x2="1148.04"
   y2="440.17"
   id="line193" />
	<line
   class="st1"
   x1="1162.21"
   y1="0.79"
   x2="1162.21"
   y2="440.17"
   id="line195" />
	<line
   class="st1"
   x1="1176.39"
   y1="0.79"
   x2="1176.39"
   y2="440.17"
   id="line197" />
	<line
   class="st1"
   x1="1190.56"
   y1="0.79"
   x2="1190.56"
   y2="440.17"
   id="line199" />
	<line
   class="st1"
   x1="1204.73"
   y1="0.79"
   x2="1204.73"
   y2="440.17"
   id="line201" />
	<line
   class="st1"
   x1="1218.91"
   y1="0.79"
   x2="1218.91"
   y2="440.17"
   id="line203" />
	<line
   class="st1"
   x1="1233.08"
   y1="0.79"
   x2="1233.08"
   y2="440.17"
   id="line205" />
	<line
   class="st1"
   x1="1247.25"
   y1="0.79"
   x2="1247.25"
   y2="440.17"
   id="line207" />
	<line
   class="st1"
   x1="1261.43"
   y1="0.79"
   x2="1261.43"
   y2="440.17"
   id="line209" />
	<line
   class="st1"
   x1="1275.6"
   y1="0.79"
   x2="1275.6"
   y2="440.17"
   id="line211" />
	<line
   class="st1"
   x1="1289.77"
   y1="0.79"
   x2="1289.77"
   y2="440.17"
   id="line213" />
	<line
   class="st1"
   x1="1303.95"
   y1="0.79"
   x2="1303.95"
   y2="440.17"
   id="line215" />
	<line
   class="st1"
   x1="1318.12"
   y1="0.79"
   x2="1318.12"
   y2="440.17"
   id="line217" />
	<line
   class="st1"
   x1="1332.29"
   y1="0.79"
   x2="1332.29"
   y2="440.17"
   id="line219" />
	<line
   class="st1"
   x1="1346.47"
   y1="0.79"
   x2="1346.47"
   y2="440.17"
   id="line221" />
	<line
   class="st1"
   x1="1360.64"
   y1="0.79"
   x2="1360.64"
   y2="440.17"
   id="line223" />
	<line
   class="st1"
   x1="1374.81"
   y1="0.79"
   x2="1374.81"
   y2="440.17"
   id="line225" />
	<line
   class="st1"
   x1="1388.99"
   y1="0.79"
   x2="1388.99"
   y2="440.17"
   id="line227" />
	<line
   class="st1"
   x1="1403.16"
   y1="0.79"
   x2="1403.16"
   y2="440.17"
   id="line229" />
	<line
   class="st1"
   x1="1417.33"
   y1="0.79"
   x2="1417.33"
   y2="440.17"
   id="line231" />
	<line
   class="st1"
   x1="1431.51"
   y1="0.79"
   x2="1431.51"
   y2="440.17"
   id="line233" />
	<line
   class="st1"
   x1="1445.68"
   y1="0.79"
   x2="1445.68"
   y2="440.17"
   id="line235" />
	<line
   class="st1"
   x1="1459.85"
   y1="0.79"
   x2="1459.85"
   y2="440.17"
   id="line237" />
	<line
   class="st1"
   x1="1474.03"
   y1="0.79"
   x2="1474.03"
   y2="440.17"
   id="line239" />
	<line
   class="st1"
   x1="1488.2"
   y1="0.79"
   x2="1488.2"
   y2="440.17"
   id="line241" />
	<line
   class="st1"
   x1="1502.37"
   y1="0.79"
   x2="1502.37"
   y2="440.17"
   id="line243" />
	<line
   class="st1"
   x1="1516.55"
   y1="0.79"
   x2="1516.55"
   y2="440.17"
   id="line245" />
	<line
   class="st1"
   x1="1530.72"
   y1="0.79"
   x2="1530.72"
   y2="440.17"
   id="line247" />
	<line
   class="st1"
   x1="1544.89"
   y1="0.79"
   x2="1544.89"
   y2="440.17"
   id="line249" />
	<line
   class="st1"
   x1="1559.07"
   y1="0.79"
   x2="1559.07"
   y2="440.17"
   id="line251" />
	<line
   class="st1"
   x1="1573.24"
   y1="0.79"
   x2="1573.24"
   y2="440.17"
   id="line253" />
	<line
   class="st1"
   x1="1587.41"
   y1="0.79"
   x2="1587.41"
   y2="440.17"
   id="line255" />
	<line
   class="st1"
   x1="1601.59"
   y1="0.79"
   x2="1601.59"
   y2="440.17"
   id="line257" />
	<line
   class="st1"
   x1="1615.76"
   y1="0.79"
   x2="1615.76"
   y2="440.17"
   id="line259" />
	<line
   class="st1"
   x1="1629.94"
   y1="0.79"
   x2="1629.94"
   y2="440.17"
   id="line261" />
	<line
   class="st1"
   x1="0"
   y1="0.79"
   x2="0"
   y2="440.17"
   id="line263" />
	<line
   class="st1"
   x1="85.04"
   y1="0.79"
   x2="85.04"
   y2="440.17"
   id="line265" />
	<line
   class="st1"
   x1="56.69"
   y1="0.79"
   x2="56.69"
   y2="440.17"
   id="line267" />
	<line
   class="st1"
   x1="42.52"
   y1="0.79"
   x2="42.52"
   y2="440.17"
   id="line269" />
	<line
   class="st1"
   x1="28.35"
   y1="0.79"
   x2="28.35"
   y2="440.17"
   id="line271" />
	<line
   class="st1"
   x1="14.17"
   y1="0.79"
   x2="14.17"
   y2="440.17"
   id="line273" />
	<line
   class="st1"
   x1="70.87"
   y1="0.79"
   x2="70.87"
   y2="440.17"
   id="line275" />
	<line
   class="st1"
   x1="99.21"
   y1="0.79"
   x2="99.21"
   y2="440.17"
   id="line277" />
	<line
   class="st1"
   x1="113.39"
   y1="0.79"
   x2="113.39"
   y2="440.17"
   id="line279" />
	<line
   class="st1"
   x1="127.56"
   y1="0.79"
   x2="127.56"
   y2="440.17"
   id="line281" />
	<line
   class="st1"
   x1="141.73"
   y1="0.79"
   x2="141.73"
   y2="440.17"
   id="line283" />
	<line
   class="st1"
   x1="155.91"
   y1="0.79"
   x2="155.91"
   y2="440.17"
   id="line285" />
	<line
   class="st1"
   x1="170.08"
   y1="0.79"
   x2="170.08"
   y2="440.17"
   id="line287" />
	<line
   class="st1"
   x1="184.25"
   y1="0.79"
   x2="184.25"
   y2="440.17"
   id="line289" />
	<line
   class="st1"
   x1="198.43"
   y1="0.79"
   x2="198.43"
   y2="440.17"
   id="line291" />
	<line
   class="st1"
   x1="212.6"
   y1="0.79"
   x2="212.6"
   y2="440.17"
   id="line293" />
	<line
   class="st1"
   x1="226.77"
   y1="0.79"
   x2="226.77"
   y2="440.17"
   id="line295" />
	<line
   class="st1"
   x1="240.95"
   y1="0.79"
   x2="240.95"
   y2="440.17"
   id="line297" />
	<line
   class="st1"
   x1="255.12"
   y1="0.79"
   x2="255.12"
   y2="440.17"
   id="line299" />
	<line
   class="st1"
   x1="269.29"
   y1="0.79"
   x2="269.29"
   y2="440.17"
   id="line301" />
	<line
   class="st1"
   x1="283.47"
   y1="0.79"
   x2="283.47"
   y2="440.17"
   id="line303" />
	<line
   class="st1"
   x1="297.64"
   y1="0.79"
   x2="297.64"
   y2="440.17"
   id="line305" />
	<line
   class="st1"
   x1="311.81"
   y1="0.79"
   x2="311.81"
   y2="440.17"
   id="line307" />
</g>
<g
   id="Camada_3">
</g>
<g
   id="Camada_2"
   style="fill:#ffffff">
	<g
   id="g345"
   style="fill:#ffffff">
		<g
   id="g319"
   style="fill:#ffffff">
			<g
   id="g313"
   style="fill:#ffffff">
				<path
   d="M462.17,280.8v-16.24L410.7,213.2l-38.96-38.96l-5.16,5.16l-5.16,5.27l5.16,5.16l44.12,44.01l36.66,36.76v26.34      c0,20.3-16.46,36.88-36.66,36.88h-44.12l-44.12-0.11c-8.23,0-15.91-2.74-22.06-7.35c-8.89-6.69-14.71-17.34-14.71-29.3h-7.35      h-3.62h-3.73c0,20.19-16.47,36.65-36.66,36.65H146.1c-20.19,0-36.77-16.46-36.77-36.77V142.74h73.53v153.98h14.71V142.74h36.77      h36.66v-14.71h-36.66h-125H94.62v168.9c0,28.43,23.16,51.48,51.48,51.48h88.24c16.35,0,30.95-7.69,40.38-19.65      c1.32-1.64,2.53-3.51,3.62-5.26c5.27,8.56,12.95,15.58,22.06,19.98c6.69,3.18,14.16,4.94,22.06,4.94h44.12h44.12      c28.31,0,51.36-23.05,51.36-51.48L462.17,280.8z"
   id="path311"
   style="fill:#ffffff" />
			</g>
			<g
   id="g317"
   style="fill:#ffffff">
				<path
   d="M587.07,128.04h-88.24c-14.38,0-27.33,5.93-36.66,15.47c-2.85,2.85-5.38,6.03-7.46,9.55      c-9-14.92-25.35-25.02-44.01-25.02h-44.12h-44.12c-7.68,0-15.25,1.97-22.06,5.38c-11.42,5.6-20.74,15.48-25.69,27.44      c-2.41,5.81-3.73,12.07-3.73,18.66V212l3.73,3.62l25.69,25.68l22.06,22.07l38.96,38.96l5.16-5.27l5.16-5.16l-5.16-5.16      l-44.12-44.23l-22.06-21.95l-14.71-14.71v-26.34c0-12.29,5.93-22.83,14.71-29.41c6.26-4.61,13.94-7.35,22.06-7.35h44.12h44.12      c20.19,0,36.66,16.57,36.66,36.76h7.35h7.36c0-0.44,0-0.77,0.11-1.1c0.55-19.76,16.79-35.67,36.66-35.67h88.24      c20.09,0,36.55,16.57,36.55,36.76v80.78H550.3v-80.78H535.6v154.2h-36.77h-36.66h-0.11v14.71h0.11h36.66h51.47v-73.42h88.02      v-95.48C638.32,151.19,615.27,128.04,587.07,128.04z"
   id="path315"
   style="fill:#ffffff" />
			</g>
		</g>
		<g
   id="g343"
   style="fill:#ffffff">
			<g
   id="g331"
   style="fill:#ffffff">
				<path
   d="M1048.18,324.58c-4.02,0-6.88,0-8.6-0.19v11.09c5.73,0.38,11.67,1.34,16.64,2.3v17.4H993.5v-17.4      c4.97-0.96,10.9-1.92,16.63-2.3v-60.04c-5.74-0.38-11.66-1.34-16.63-2.29v-17.4h16.63c9.37,0,26.77-0.76,39.58-0.76      c27.54,0,44.17,11.47,44.17,34.03C1093.88,309.67,1076.67,324.58,1048.18,324.58z M1047.61,277.36c-2.68,0-5.16,0-8.03,0.19      v24.86c1.53,0.19,4.78,0.38,7.27,0.38c9.75,0,15.87-5.35,15.87-13C1062.72,281.56,1057.36,277.36,1047.61,277.36z"
   id="path321"
   style="fill:#ffffff" />
				<path
   d="M1174.77,355.18l-20.08-36.14h-5.16v16.82c2.68,0.38,5.93,0.96,8.41,1.92v17.4h-54.49v-17.4      c4.97-0.96,10.9-1.92,16.64-2.3v-60.04c-5.74-0.38-11.67-1.34-16.64-2.29v-17.4h16.25c9.18,0,28.49-0.76,44.17-0.76      c22.94,0,40.35,9.56,40.35,30.21c0,13.96-8.8,23.13-19.51,27.15c2.1,2.29,4.02,5.36,5.74,8.03l9.37,15.29      c3.63,0.39,6.88,1.16,10.13,2.11v17.4H1174.77z M1157.94,276.4c-2.86,0-6.31,0.2-8.41,0.39v22.18c2.1,0.19,4.97,0.19,8.03,0.19      c8.99,0,14.34-4.78,14.34-11.86C1171.9,280.61,1167.12,276.4,1157.94,276.4z"
   id="path323"
   style="fill:#ffffff" />
				<path
   d="M1273.24,356.71c-36.33,0-52.39-19.69-52.39-48.95c0-27.72,17.21-53.91,55.83-53.91c8.8,0,17.97,1.33,25.24,3.43v35.56      h-21.61c-0.77-4.2-1.34-7.83-1.92-11.66c-1.91-0.38-3.63-0.57-5.74-0.57c-12.05,0-20.27,8.8-20.27,24.66      c0,14.73,8.6,23.91,26.77,23.91c7.46,0,15.87-1.73,22.37-4.2l1.92,27.53C1295.04,354.99,1284.72,356.71,1273.24,356.71z"
   id="path325"
   style="fill:#ffffff" />
				<path
   d="M1317.98,355.18v-17.4c4.97-0.96,10.9-1.92,16.64-2.3v-60.04c-5.74-0.38-11.67-1.34-16.64-2.29v-17.4h88.92v28.29      h-22.56c-0.77-3.05-1.34-6.11-1.72-9.37h-18.55v21.22h12.62c0.19-2.87,0.77-5.16,1.33-6.69h19.7v31.55h-19.7      c-0.76-2.11-1.14-4.21-1.33-6.89h-12.62v21.99h18.74c0.58-3.44,1.15-6.88,1.92-9.94h22.76v29.26H1317.98z"
   id="path327"
   style="fill:#ffffff" />
				<path
   d="M1527.56,275.44v41.11c0,22.56-14.92,40.54-48.77,40.54c-31.74,0-46.46-15.1-46.46-37.47v-44.18      c-4.2-0.38-8.98-1.15-12.05-2.1v-17.59h53.16v17.59c-3.06,0.95-7.65,1.72-11.66,2.1v37.1c0,14.15,5.93,20.08,18.55,20.08      c12.62,0,18.16-7.08,18.16-20.46v-36.71c-4.01-0.38-8.6-1.15-11.66-2.1v-17.59h52.77v17.59      C1536.54,274.3,1531.95,275.06,1527.56,275.44z"
   id="path329"
   style="fill:#ffffff" />
			</g>
			<g
   id="g341"
   style="fill:#ffffff">
				<path
   d="M1006.34,71.51c-25.82,0-50.02,6.91-70.87,18.97c-4.66,2.69-9.14,5.65-13.45,8.84      c-34.84,25.82-57.42,67.24-57.42,113.93s22.58,88.11,57.42,113.93c4.3,3.19,8.79,6.14,13.45,8.84      c9.2-5.32,17.74-11.65,25.49-18.84c-4.65-2.04-9.15-4.37-13.46-6.99c-32.71-19.89-54.55-55.87-54.55-96.94      c0-41.08,21.85-77.05,54.55-96.94c4.3-2.62,8.8-4.95,13.46-6.99c13.9-6.08,29.24-9.46,45.38-9.46      c62.62,0,113.38,50.76,113.38,113.39h28.35C1148.08,134.97,1084.62,71.51,1006.34,71.51z"
   id="path333"
   style="fill:#ffffff" />
				<g
   id="g339"
   style="fill:#ffffff">
					<path
   d="M864.61,85.68c20.65,0,40.16,4.92,57.42,13.63c4.3-3.19,8.79-6.14,13.45-8.84c-20.85-12.06-45.05-18.97-70.87-18.97       c-78.28,0-141.73,63.46-141.73,141.73s63.46,141.73,141.73,141.73c25.82,0,50.02-6.91,70.87-18.97       c-4.66-2.69-9.15-5.65-13.45-8.84c-17.26,8.72-36.76,13.63-57.42,13.63c-70.45,0-127.56-57.11-127.56-127.56       S794.16,85.68,864.61,85.68z"
   id="path335"
   style="fill:#ffffff" />
					<path
   d="M960.96,109.31c-4.65,2.04-9.15,4.37-13.46,6.99c27.33,23.4,44.66,58.14,44.66,96.94h14.17       C1006.34,172.18,988.87,135.2,960.96,109.31z"
   id="path337"
   style="fill:#ffffff" />
				</g>
			</g>
		</g>
	</g>
</g>
</svg>
